<svg width="195" height="29" viewBox="0 0 195 29" fill="none" xmlns="http://www.w3.org/2000/svg">
<path d="M23.6827 6.87277C24.3967 6.15872 24.843 5.14715 24.843 4.04632C24.843 1.81491 23.0579 0.0297852 20.8265 0.0297852C19.4281 0.0297852 18.1785 0.743837 17.4645 1.84466C17.286 2.02318 1.30909 21.7191 1.16033 21.9571C0.44628 22.6711 0 23.6827 0 24.7835C0 27.0149 1.78513 28.8001 4.01653 28.8001C5.41488 28.8001 6.66447 28.086 7.37852 26.9852C7.55704 26.7769 23.5339 7.08103 23.6827 6.87277Z" fill="#5B38E3"/>
<path d="M32.9342 16.2148C33.6483 15.5008 34.0946 14.4892 34.0946 13.3884C34.0946 11.157 32.3094 9.37183 30.078 9.37183C28.6797 9.37183 27.4301 10.0859 26.716 11.1867C26.5375 11.3652 18.1177 21.719 17.9689 21.957C17.2549 22.671 16.8086 23.6826 16.8086 24.7834C16.8086 27.0148 18.5937 28.7999 20.8251 28.7999C22.2235 28.7999 23.4731 28.0859 24.1871 26.9851C24.3954 26.7768 32.7855 16.4231 32.9342 16.2148Z" fill="#5B38E3"/>
<path d="M41.6815 4.01653C41.6815 6.24794 39.8964 8.03307 37.665 8.03307C35.4336 8.03307 33.6484 6.24794 33.6484 4.01653C33.6484 1.78513 35.4336 0 37.665 0C39.8964 0.0297521 41.6815 1.81488 41.6815 4.01653Z" fill="#5B38E3"/>
<path d="M8.03307 4.01653C8.03307 6.24794 6.24794 8.03307 4.01653 8.03307C1.78513 8.03307 0 6.24794 0 4.01653C0 1.78513 1.78513 0 4.01653 0C6.24794 0.0297521 8.03307 1.81488 8.03307 4.01653Z" fill="#5B38E3"/>
<path d="M47.8848 26.0001V23.7221L59.4788 7.4021H48.7348V2.6421H68.7608V4.9201L57.1668 21.2401H69.0328V26.0001H47.8848Z" fill="#202020"/>
<path d="M77.2825 26.4081C76.5345 26.4081 75.7979 26.3288 75.0725 26.1701C74.3699 26.0341 73.7239 25.7848 73.1345 25.4221C72.5679 25.0368 72.1145 24.5154 71.7745 23.8581C71.4345 23.2008 71.2645 22.3734 71.2645 21.3761C71.2645 20.0841 71.5365 19.0301 72.0805 18.2141C72.6245 17.3981 73.4065 16.7634 74.4265 16.3101C75.4692 15.8341 76.7159 15.5054 78.1665 15.3241C79.6399 15.1428 81.2832 15.0521 83.0965 15.0521V13.9301C83.0965 13.4088 82.9945 12.9781 82.7905 12.6381C82.5865 12.2754 82.2805 12.0034 81.8725 11.8221C81.4872 11.6181 80.9659 11.5161 80.3085 11.5161C79.7192 11.5161 79.1979 11.5841 78.7445 11.7201C78.3139 11.8561 77.9852 12.0601 77.7585 12.3321C77.5319 12.5814 77.4185 12.8874 77.4185 13.2501V13.5561H71.9785C71.9559 13.4428 71.9445 13.3521 71.9445 13.2841C71.9445 13.1934 71.9445 13.0801 71.9445 12.9441C71.9445 11.8788 72.2732 10.9494 72.9305 10.1561C73.6105 9.36276 74.5739 8.75076 75.8205 8.3201C77.0672 7.88943 78.5745 7.6741 80.3425 7.6741C81.9972 7.6741 83.4365 7.8781 84.6605 8.2861C85.9072 8.6941 86.8819 9.31743 87.5845 10.1561C88.3099 10.9948 88.6725 12.0941 88.6725 13.4541V21.1041C88.6725 21.4894 88.7745 21.7954 88.9785 22.0221C89.2052 22.2488 89.4772 22.3621 89.7945 22.3621H90.9505V25.7961C90.7012 25.9094 90.3045 26.0341 89.7605 26.1701C89.2392 26.3288 88.6045 26.4081 87.8565 26.4081C87.0859 26.4081 86.4059 26.3061 85.8165 26.1021C85.2499 25.9208 84.7739 25.6601 84.3885 25.3201C84.0259 24.9574 83.7765 24.5381 83.6405 24.0621H83.4025C82.9719 24.5154 82.4619 24.9234 81.8725 25.2861C81.3059 25.6488 80.6372 25.9208 79.8665 26.1021C79.1185 26.3061 78.2572 26.4081 77.2825 26.4081ZM79.3565 22.5661C79.9005 22.5661 80.3992 22.4868 80.8525 22.3281C81.3059 22.1694 81.6912 21.9541 82.0085 21.6821C82.3485 21.3874 82.6092 21.0361 82.7905 20.6281C82.9945 20.2201 83.0965 19.7781 83.0965 19.3021V18.1121C81.8045 18.1121 80.6939 18.2028 79.7645 18.3841C78.8352 18.5654 78.1212 18.8488 77.6225 19.2341C77.1239 19.6194 76.8745 20.1068 76.8745 20.6961C76.8745 21.1268 76.9765 21.4894 77.1805 21.7841C77.4072 22.0561 77.7019 22.2601 78.0645 22.3961C78.4272 22.5094 78.8579 22.5661 79.3565 22.5661Z" fill="#202020"/>
<path d="M93.2357 5.6681V1.3841H98.8117V5.6681H93.2357ZM93.2357 26.0001V8.0821H98.8117V26.0001H93.2357Z" fill="#202020"/>
<path d="M106.975 26.0001L100.957 8.0821H106.907L108.777 15.4941C108.89 15.8794 109.003 16.3554 109.117 16.9221C109.253 17.4661 109.377 17.9988 109.491 18.5201C109.627 19.0414 109.74 19.4721 109.831 19.8121H110.035C110.171 19.3134 110.295 18.8034 110.409 18.2821C110.522 17.7608 110.635 17.2508 110.749 16.7521C110.885 16.2534 110.998 15.8228 111.089 15.4601L112.925 8.0821H118.637L120.507 15.4941C120.597 15.8114 120.699 16.2308 120.813 16.7521C120.926 17.2734 121.051 17.8061 121.187 18.3501C121.323 18.8941 121.436 19.3814 121.527 19.8121H121.765C121.833 19.4268 121.923 18.9848 122.037 18.4861C122.173 17.9874 122.309 17.4774 122.445 16.9561C122.581 16.4121 122.694 15.9474 122.785 15.5621L124.689 8.0821H130.095L124.077 26.0001H118.501L116.631 18.8261C116.54 18.4181 116.427 17.9534 116.291 17.4321C116.155 16.9108 116.03 16.4008 115.917 15.9021C115.803 15.4034 115.701 14.9728 115.611 14.6101H115.475C115.429 14.8594 115.35 15.1994 115.237 15.6301C115.146 16.0608 115.033 16.5481 114.897 17.0921C114.783 17.6361 114.636 18.2028 114.455 18.7921L112.551 26.0001H106.975Z" fill="#202020"/>
<path d="M140.919 26.4081C138.925 26.4081 137.213 26.0681 135.785 25.3881C134.38 24.7081 133.292 23.6768 132.521 22.2941C131.773 20.8888 131.399 19.1321 131.399 17.0241C131.399 14.9161 131.773 13.1708 132.521 11.7881C133.292 10.4054 134.38 9.3741 135.785 8.6941C137.213 8.0141 138.925 7.6741 140.919 7.6741C142.937 7.6741 144.648 8.0141 146.053 8.6941C147.481 9.3741 148.569 10.4054 149.317 11.7881C150.088 13.1708 150.473 14.9161 150.473 17.0241C150.473 19.1321 150.088 20.8888 149.317 22.2941C148.569 23.6768 147.481 24.7081 146.053 25.3881C144.648 26.0681 142.937 26.4081 140.919 26.4081ZM140.919 22.3621C141.849 22.3621 142.597 22.1808 143.163 21.8181C143.753 21.4554 144.172 20.9341 144.421 20.2541C144.693 19.5514 144.829 18.6901 144.829 17.6701V16.4121C144.829 15.3921 144.693 14.5308 144.421 13.8281C144.172 13.1254 143.753 12.6041 143.163 12.2641C142.597 11.9014 141.849 11.7201 140.919 11.7201C140.013 11.7201 139.265 11.9014 138.675 12.2641C138.109 12.6041 137.689 13.1254 137.417 13.8281C137.168 14.5308 137.043 15.3921 137.043 16.4121V17.6701C137.043 18.6901 137.168 19.5514 137.417 20.2541C137.689 20.9341 138.109 21.4554 138.675 21.8181C139.265 22.1808 140.013 22.3621 140.919 22.3621Z" fill="#202020"/>
<path d="M153.831 26.0001V8.0821H158.421L158.829 10.8361H159.067C159.339 10.2241 159.668 9.6801 160.053 9.2041C160.461 8.70543 160.949 8.3201 161.515 8.0481C162.105 7.7761 162.751 7.6401 163.453 7.6401C163.861 7.6401 164.235 7.68543 164.575 7.7761C164.915 7.8441 165.165 7.92343 165.323 8.0141V12.8761H163.555C162.853 12.8761 162.229 12.9781 161.685 13.1821C161.164 13.3634 160.733 13.6581 160.393 14.0661C160.053 14.4514 159.804 14.9274 159.645 15.4941C159.487 16.0608 159.407 16.7181 159.407 17.4661V26.0001H153.831Z" fill="#202020"/>
<path d="M167.677 26.0001V1.3501H173.253V15.2901L179.305 8.0821H185.833L179.475 15.1881L186.071 26.0001H179.713L175.735 19.0301L173.253 21.4441V26.0001H167.677Z" fill="#202020"/>
<path d="M188.769 26.0001V20.3221H194.685V26.0001H188.769Z" fill="#202020"/>
</svg>
